<?xml version="1.0" encoding="UTF-8" standalone="no"?>
<!DOCTYPE svg PUBLIC "-//W3C//DTD SVG 1.1//EN" "http://www.w3.org/Graphics/SVG/1.1/DTD/svg11.dtd">
<svg width="100%" height="100%" viewBox="0 0 1125 1350" version="1.1" xmlns="http://www.w3.org/2000/svg" xmlns:xlink="http://www.w3.org/1999/xlink" xml:space="preserve" xmlns:serif="http://www.serif.com/" style="fill-rule:evenodd;clip-rule:evenodd;stroke-linecap:round;stroke-linejoin:round;stroke-miterlimit:1.5;">
    <rect id="アートボード1" x="0" y="0" width="1125" height="1350" style="fill:none;"/>
    <clipPath id="_clip1">
        <rect id="アートボード11" serif:id="アートボード1" x="0" y="0" width="1125" height="1350"/>
    </clipPath>
    <g clip-path="url(#_clip1)">
        <g transform="matrix(1.00349,0,0,1,-3.29682,0)">
            <rect x="3.285" y="732.526" width="1121.09" height="618.672" style="fill:rgb(249,245,234);"/>
        </g>
        <path d="M644.859,750.297L661.024,748.519L659.434,772.539L645.022,771.671L644.859,750.297" style="fill:white;"/>
        <g transform="matrix(0.372027,0,0,0.372369,706.171,460.682)">
            <path d="M1125.8,734.001L-0.233,734.001" style="fill:none;stroke:black;stroke-width:28.21px;"/>
        </g>
        <path d="M416.688,647.631L418.923,776.331L523.593,784.068L523.951,655.265L453.748,641.96L416.688,647.631Z" style="fill:rgb(135,204,247);"/>
        <path d="M525.152,656.678L583.939,642.765L638.248,643.159L644.424,777.274L591.276,778.294L526.174,788.323L525.152,656.678Z" style="fill:rgb(135,204,247);"/>
        <g transform="matrix(0.326837,0,0,0.327137,-1.33845,493.882)">
            <path d="M1125.8,734.001L-0.233,734.001" style="fill:none;stroke:black;stroke-width:32.11px;"/>
        </g>
        <path d="M764.004,728.747C764.004,728.747 754.147,641.258 709.173,597.851" style="fill:none;stroke:black;stroke-width:10.5px;"/>
        <path d="M374.879,730.392L409.256,731.968L402.275,736.815L386.078,735.832L374.879,730.392Z" style="fill:white;"/>
        <path d="M694.659,733.052L650.685,649.226C650.685,649.226 563.451,665.168 573.596,698.912C583.74,732.655 582.263,744.536 640.297,747.666L694.659,733.052Z" style="fill:white;"/>
        <path d="M683.454,642.411C643.042,647.566 562.216,657.874 573.751,711.85C586.851,773.144 676.227,742.504 720.915,727.184" style="fill:none;stroke:black;stroke-width:10.5px;"/>
        <path d="M412.306,735.634C373.995,754.963 303.84,699.2 400.826,617.047C478.901,550.912 501.418,599.438 498.77,625.145" style="fill:none;stroke:black;stroke-width:10.5px;"/>
        <path d="M644.787,778.24C644.787,778.24 566.469,773.867 525.621,788.096C525.621,788.096 481.452,768.998 417.403,779.064L412.998,646.583C412.998,646.583 445.772,633.725 523.045,654.824C523.045,654.824 589.624,635.172 640.036,644.761" style="fill:none;stroke:black;stroke-width:9px;"/>
        <g transform="matrix(0.999876,0.0157772,-0.0157772,0.999876,11.4472,-8.19138)">
            <path d="M526.294,788.581L523.469,654.242" style="fill:none;stroke:black;stroke-width:9px;"/>
        </g>
        <path d="M644.614,777.488L645.807,746.468" style="fill:none;stroke:black;stroke-width:9px;"/>
        <path d="M417.306,644.781L417.847,629.371C417.847,629.371 457.915,622.006 522.659,636.503C522.659,636.503 591.354,614.531 661.994,630.36L661.994,644.496" style="fill:none;stroke:black;stroke-width:9px;"/>
        <path d="M647.874,773.696L660.935,774.672L661.247,745.09" style="fill:none;stroke:black;stroke-width:9px;"/>
        <path d="M433.273,591.181C433.273,591.181 342.549,528.543 429.255,409.933C429.255,409.933 410.122,353.726 449.349,331.237C479.017,314.229 518.286,337.359 529.64,358.544C529.64,358.544 583.004,353.541 610.954,359.758C610.954,359.758 650.504,311.142 687.135,331.6C713.213,346.165 716.306,365.686 709.711,402.771C709.711,402.771 808.736,535.328 685.2,610.088" style="fill:none;stroke:black;stroke-width:9px;"/>
        <g transform="matrix(1.13132,0,0,1.15613,-75.3309,-42.6671)">
            <circle cx="529.188" cy="462.333" r="10.542"/>
        </g>
        <g transform="matrix(1.13132,0,0,1.15613,0.0170141,-42.6671)">
            <circle cx="529.188" cy="462.333" r="10.542"/>
        </g>
        <g transform="matrix(0.702144,0,0,0.735009,143.244,159.485)">
            <circle cx="479.465" cy="494.028" r="27.587" style="fill:rgb(255,143,106);"/>
        </g>
        <path d="M454.151,580.659L438.412,539.807L458.34,533.623L475.732,579.793" style="fill:none;stroke:black;stroke-width:10.5px;"/>
        <g transform="matrix(0.711683,0,0,0.724434,298.993,164.21)">
            <circle cx="479.465" cy="494.028" r="27.587" style="fill:rgb(255,143,106);"/>
        </g>
        <g transform="matrix(0.634864,0,0,0.648786,205.495,208.452)">
            <path d="M503.004,497.015C503.004,497.015 554.299,533.678 611.648,497.529" style="fill:none;stroke:black;stroke-width:14.02px;"/>
        </g>
        <g transform="matrix(0.743233,-0.239048,0.269618,0.838278,12.4447,170.738)">
            <path d="M445.681,363.637C445.681,363.637 451.699,369.863 451.576,379.55C451.512,384.528 451.462,390.704 444.725,396.828" style="fill:none;stroke:black;stroke-width:10.82px;"/>
        </g>
        <g transform="matrix(-0.729256,-0.389319,-0.421318,0.789196,1173.39,254.898)">
            <path d="M445.681,363.637C445.681,363.637 451.699,369.863 451.576,379.55C451.512,384.528 451.462,390.704 444.725,396.828" style="fill:none;stroke:black;stroke-width:10.45px;"/>
        </g>
    </g>
    <g id="レイヤー1">
    </g>
</svg>
