<svg width="89" height="91" viewBox="0 0 89 91" fill="none" xmlns="http://www.w3.org/2000/svg">
<circle cx="43.5" cy="43.5" r="43.5" fill="#B5B2F5"/>
<path d="M51 53.092C48.3333 50.7587 41.4 47.492 35 53.092" stroke="black" stroke-width="3" stroke-linecap="round"/>
<path fill-rule="evenodd" clip-rule="evenodd" d="M32.9588 76.7171C58.2567 78.8905 80.5277 60.1332 82.7023 34.8213C83.019 31.1354 82.892 27.5137 82.3659 24.0091C85.8778 30.97 87.5629 38.962 86.8464 47.3018C84.7899 71.2381 63.7294 88.976 39.8063 86.9207C24.6821 85.6213 12.0345 76.722 5.29663 64.3033C12.5857 71.2122 22.1771 75.7908 32.9588 76.7171Z" fill="#AAA6F2"/>
<path d="M52 38C53.6667 39.5093 58 41.6222 62 38" stroke="black" stroke-width="3" stroke-linecap="round"/>
<path d="M62.2958 44L65.2933 50.5144" stroke="#837DE1" stroke-width="2" stroke-linecap="round"/>
<circle cx="67.5" cy="54.5" r="1.5" fill="#837DE1"/>
<path d="M25 38C26.6667 39.5093 31 41.6222 35 38" stroke="black" stroke-width="3" stroke-linecap="round"/>
</svg>
