<?xml version="1.0" encoding="UTF-8" standalone="no"?>
<!DOCTYPE svg PUBLIC "-//W3C//DTD SVG 1.1//EN" "http://www.w3.org/Graphics/SVG/1.1/DTD/svg11.dtd">
<svg width="100%" height="100%" viewBox="0 0 1200 1200" version="1.1" xmlns="http://www.w3.org/2000/svg" xmlns:xlink="http://www.w3.org/1999/xlink" xml:space="preserve" xmlns:serif="http://www.serif.com/" style="fill-rule:evenodd;clip-rule:evenodd;stroke-linejoin:round;stroke-miterlimit:2;">
    <rect id="アートボード1" x="0" y="0" width="1200" height="1200" style="fill:none;"/>
    <g id="アートボード11" serif:id="アートボード1">
        <g transform="matrix(2.61875,0,0,2.61875,600,728.222)">
            <g transform="matrix(1,0,0,1,-200,-150)">
                <g id="_113_brainstorming_flatline">
                    <path d="M263.41,163.71C271.844,151.535 276.365,137.071 276.365,122.259C276.365,82.328 243.506,49.469 203.575,49.469C163.644,49.469 130.785,82.328 130.785,122.259C130.785,137.071 135.306,151.535 143.74,163.71L143.82,163.8C145.666,166.468 147.69,169.007 149.88,171.4C152.88,175.61 161.18,180.95 162.64,185.91C165.64,196.16 171.69,208.91 171.69,208.91L235.49,208.91C235.49,208.91 241.54,196.14 244.55,185.91C246,180.91 254.27,175.61 257.31,171.4C259.5,169.007 261.524,166.468 263.37,163.8L263.41,163.71Z" style="fill:rgb(104,225,253);fill-rule:nonzero;"/>
                    <path d="M237.38,212.84C237.38,210.682 235.628,208.93 233.47,208.93L173.64,208.93C171.482,208.93 169.73,210.682 169.73,212.84L169.73,215.47C169.73,217.628 171.482,219.38 173.64,219.38L233.47,219.38C235.628,219.38 237.38,217.628 237.38,215.47L237.38,212.84Z" style="fill:white;"/>
                    <path d="M233.47,219.89L173.63,219.89C171.215,219.885 169.23,217.895 169.23,215.48L169.23,212.84C169.23,210.425 171.215,208.435 173.63,208.43L233.47,208.43C235.887,208.435 237.875,210.423 237.88,212.84L237.88,215.48C237.875,217.897 235.887,219.885 233.47,219.89ZM173.63,209.43C171.763,209.435 170.23,210.973 170.23,212.84L170.23,215.48C170.23,217.347 171.763,218.885 173.63,218.89L233.47,218.89C235.341,218.89 236.88,217.351 236.88,215.48L236.88,212.84C236.88,210.969 235.341,209.43 233.47,209.43L173.63,209.43Z" style="fill:rgb(35,31,32);fill-rule:nonzero;"/>
                    <path d="M237.38,223.3C237.38,221.142 235.628,219.39 233.47,219.39L173.64,219.39C171.482,219.39 169.73,221.142 169.73,223.3L169.73,225.93C169.73,228.088 171.482,229.84 173.64,229.84L233.47,229.84C235.628,229.84 237.38,228.088 237.38,225.93L237.38,223.3Z" style="fill:white;"/>
                    <path d="M233.47,230.34L173.63,230.34C171.216,230.34 169.23,228.354 169.23,225.94L169.23,223.3C169.23,220.885 171.215,218.895 173.63,218.89L233.47,218.89C235.887,218.895 237.875,220.883 237.88,223.3L237.88,225.94C237.875,228.355 235.885,230.34 233.47,230.34ZM173.63,219.89C171.763,219.895 170.23,221.433 170.23,223.3L170.23,225.94C170.23,227.805 171.765,229.34 173.63,229.34L233.47,229.34C235.337,229.34 236.875,227.807 236.88,225.94L236.88,223.3C236.88,221.429 235.341,219.89 233.47,219.89L173.63,219.89Z" style="fill:rgb(35,31,32);fill-rule:nonzero;"/>
                    <path d="M237.38,233.75C237.38,231.592 235.628,229.84 233.47,229.84L173.64,229.84C171.482,229.84 169.73,231.592 169.73,233.75L169.73,236.38C169.73,238.538 171.482,240.29 173.64,240.29L233.47,240.29C235.628,240.29 237.38,238.538 237.38,236.38L237.38,233.75Z" style="fill:white;"/>
                    <path d="M233.47,240.8L173.63,240.8C171.215,240.795 169.23,238.805 169.23,236.39L169.23,233.75C169.23,231.335 171.215,229.345 173.63,229.34L233.47,229.34C235.887,229.345 237.875,231.333 237.88,233.75L237.88,236.39C237.875,238.807 235.887,240.795 233.47,240.8ZM173.63,230.34C171.763,230.345 170.23,231.883 170.23,233.75L170.23,236.39C170.23,238.257 171.763,239.795 173.63,239.8L233.47,239.8C235.341,239.8 236.88,238.261 236.88,236.39L236.88,233.75C236.88,231.879 235.341,230.34 233.47,230.34L173.63,230.34Z" style="fill:rgb(35,31,32);fill-rule:nonzero;"/>
                    <path d="M237.38,244.21C237.38,242.052 235.628,240.3 233.47,240.3L173.64,240.3C171.482,240.3 169.73,242.052 169.73,244.21L169.73,246.84C169.73,248.998 171.482,250.75 173.64,250.75L233.47,250.75C235.628,250.75 237.38,248.998 237.38,246.84L237.38,244.21Z" style="fill:white;"/>
                    <path d="M233.47,251.25L173.63,251.25C171.215,251.245 169.23,249.255 169.23,246.84L169.23,244.2C169.23,241.786 171.216,239.8 173.63,239.8L233.47,239.8C235.885,239.8 237.875,241.785 237.88,244.2L237.88,246.84C237.875,249.257 235.887,251.245 233.47,251.25ZM173.63,240.8C171.765,240.8 170.23,242.335 170.23,244.2L170.23,246.84C170.23,248.707 171.763,250.245 173.63,250.25L233.47,250.25C235.341,250.25 236.88,248.711 236.88,246.84L236.88,244.2C236.875,242.333 235.337,240.8 233.47,240.8L173.63,240.8Z" style="fill:rgb(35,31,32);fill-rule:nonzero;"/>
                    <path d="M212.52,264.8L194.59,264.8C190.041,264.805 185.702,262.86 182.68,259.46L174.93,250.75L232.18,250.75L224.43,259.46C221.406,262.858 217.068,264.803 212.52,264.8Z" style="fill:rgb(35,31,32);fill-rule:nonzero;"/>
                    <path d="M212.52,265.3L194.59,265.3C189.898,265.298 185.423,263.292 182.3,259.79L174.55,251.08C174.421,250.935 174.389,250.727 174.47,250.55C174.552,250.369 174.732,250.252 174.93,250.25L232.18,250.25C232.376,250.251 232.554,250.369 232.63,250.55C232.716,250.726 232.684,250.938 232.55,251.08L224.8,259.79C221.681,263.292 217.209,265.299 212.52,265.3ZM176,251.25L183,259.13C185.931,262.419 190.134,264.302 194.54,264.3L212.47,264.3C216.875,264.299 221.077,262.417 224.01,259.13L231.01,251.25L176,251.25Z" style="fill:rgb(35,31,32);fill-rule:nonzero;"/>
                    <path d="M187.19,177.56C185.891,177.553 184.596,177.425 183.32,177.18C178.777,176.504 174.961,173.373 173.41,169.05C170.081,168.03 167.011,166.304 164.41,163.99C160.14,160.31 161.19,154.7 161.83,152.49C158.146,150.616 155.451,147.231 154.45,143.22C153.209,139.165 154.237,134.741 157.14,131.65C155.493,129.659 154.476,127.221 154.22,124.65C153.52,119.22 157.71,115.16 159.53,113.65C158.53,112 157.05,108.1 160.02,102.43C161.976,98.472 165.931,95.87 170.34,95.64C169.733,92.582 169.853,89.423 170.69,86.42C172.42,79.72 189.1,73.42 194.3,73.7C196.966,73.852 199.473,75.023 201.3,76.97C201.488,77.15 201.593,77.4 201.59,77.66L201.59,165.82C201.595,165.887 201.595,165.953 201.59,166.02C201.504,166.498 201.373,166.966 201.2,167.42C198.57,174.06 193.66,177.56 187.19,177.56ZM171,97.61C167.083,97.613 163.492,99.847 161.76,103.36C158.5,109.58 161.49,113.05 161.62,113.2C161.81,113.416 161.897,113.705 161.86,113.99C161.829,114.276 161.676,114.535 161.44,114.7C161.38,114.7 155.44,118.83 156.17,124.38C156.77,128.99 159.05,130.78 159.17,130.85C159.415,131.039 159.559,131.331 159.56,131.64C159.564,131.946 159.428,132.237 159.19,132.43C156.337,135 155.229,139.01 156.36,142.68C157.245,146.397 159.845,149.481 163.36,150.98C163.623,151.063 163.84,151.251 163.96,151.5C164.068,151.752 164.068,152.038 163.96,152.29C163.96,152.36 161.46,158.84 165.67,162.47C168.14,164.729 171.117,166.362 174.35,167.23C174.74,167.303 175.052,167.603 175.14,167.99C175.14,168.23 176.62,173.86 183.66,175.21C191.11,176.64 196.52,173.69 199.33,166.68C199.442,166.354 199.529,166.019 199.59,165.68L199.59,78.08C198.131,76.657 196.205,75.811 194.17,75.7C189.17,75.46 173.93,81.7 172.58,86.92C171.687,89.976 171.687,93.224 172.58,96.28C172.717,96.614 172.664,96.997 172.44,97.28C172.227,97.554 171.885,97.698 171.54,97.66C171.195,97.622 171.32,97.61 171,97.61Z" style="fill:white;fill-rule:nonzero;"/>
                    <path d="M168.69,137.77C163.03,137.77 158.07,132.57 157.85,132.34C157.676,132.154 157.579,131.909 157.579,131.655C157.579,131.106 158.031,130.654 158.58,130.654C158.856,130.654 159.121,130.768 159.31,130.97C159.31,131.02 164.31,136.15 169.25,135.75C169.277,135.748 169.303,135.747 169.33,135.747C169.88,135.747 170.333,136.2 170.333,136.75C170.333,137.27 169.929,137.709 169.41,137.75L168.69,137.77Z" style="fill:white;fill-rule:nonzero;"/>
                    <path d="M181.25,122.73C179.994,122.726 178.743,122.558 177.53,122.23C168.82,119.92 167.92,109.89 167.89,109.46C167.888,109.433 167.887,109.407 167.887,109.38C167.887,108.83 168.34,108.377 168.89,108.377C169.41,108.377 169.849,108.781 169.89,109.3C169.89,109.67 170.72,118.3 178.06,120.3C182.389,121.485 187.034,120.064 189.96,116.66C190.15,116.417 190.441,116.274 190.75,116.274C191.299,116.274 191.751,116.726 191.751,117.275C191.751,117.498 191.677,117.714 191.54,117.89C188.969,120.909 185.215,122.674 181.25,122.73Z" style="fill:white;fill-rule:nonzero;"/>
                    <path d="M173.8,131.59L172.99,131.59C172.441,131.59 171.99,131.139 171.99,130.59C171.99,130.59 171.99,130.589 171.99,130.589C171.99,130.04 172.441,129.589 172.99,129.589C173.007,129.589 173.023,129.589 173.04,129.59C175.82,129.73 177.93,129.08 179.31,127.65C181.49,125.39 181.22,121.87 181.22,121.83C181.218,121.802 181.216,121.773 181.216,121.745C181.216,121.194 181.669,120.741 182.22,120.741C182.739,120.741 183.176,121.143 183.22,121.66C183.22,121.84 183.58,126.1 180.77,129.02C178.905,130.807 176.378,131.739 173.8,131.59Z" style="fill:white;fill-rule:nonzero;"/>
                    <path d="M185.83,110.88C185.34,110.887 184.913,110.533 184.83,110.05C182.68,97.93 172.07,97.64 171.62,97.64C171.071,97.64 170.62,97.189 170.62,96.64C170.62,96.091 171.071,95.64 171.62,95.64C171.75,95.64 184.34,95.92 186.78,109.7C186.79,109.758 186.795,109.817 186.795,109.875C186.795,110.358 186.446,110.776 185.97,110.86L185.83,110.88Z" style="fill:white;fill-rule:nonzero;"/>
                    <path d="M187.94,165.67C187.391,165.67 186.94,165.219 186.94,164.67C186.74,151.75 174.27,151.37 173.74,151.36C173.191,151.36 172.74,150.909 172.74,150.36C172.74,149.811 173.191,149.36 173.74,149.36C173.89,149.36 188.68,149.77 188.91,164.63C188.91,165.179 188.459,165.63 187.91,165.63L187.94,165.67Z" style="fill:white;fill-rule:nonzero;"/>
                    <path d="M178.74,152.38C178.234,152.384 177.801,152.002 177.74,151.5C177.74,151.36 176.07,136.97 190.6,135.09C190.643,135.084 190.687,135.082 190.73,135.082C191.283,135.082 191.738,135.537 191.738,136.09C191.738,136.594 191.36,137.025 190.86,137.09C178.32,138.71 179.66,150.75 179.73,151.26C179.735,151.302 179.738,151.345 179.738,151.387C179.738,151.89 179.359,152.319 178.86,152.38L178.74,152.38Z" style="fill:white;fill-rule:nonzero;"/>
                    <path d="M200.63,102.29C200.103,102.291 199.662,101.876 199.63,101.35C199.63,101.2 199.33,98.27 194.56,97.05C194.084,96.966 193.733,96.549 193.733,96.065C193.733,95.517 194.185,95.065 194.733,95.065C194.845,95.065 194.955,95.084 195.06,95.12C201.36,96.72 201.62,101.06 201.63,101.25C201.63,101.799 201.179,102.25 200.63,102.25L200.63,102.29Z" style="fill:white;fill-rule:nonzero;"/>
                    <path d="M186.94,85.89C186.658,85.889 186.389,85.769 186.2,85.56C181.75,80.62 176.64,82.42 176.42,82.5C175.904,82.686 175.327,82.416 175.14,81.9C174.953,81.387 175.218,80.811 175.73,80.62C175.99,80.52 182.31,78.25 187.73,84.22C187.896,84.404 187.988,84.643 187.988,84.89C187.988,85.177 187.865,85.45 187.65,85.64C187.455,85.813 187.2,85.902 186.94,85.89Z" style="fill:white;fill-rule:nonzero;"/>
                    <path d="M175.75,151.38C175.23,151.382 174.792,150.978 174.75,150.46C174.493,148.391 173.166,146.604 171.26,145.76C170.886,145.606 170.64,145.24 170.64,144.835C170.64,144.286 171.091,143.835 171.64,143.835C171.77,143.835 171.899,143.86 172.02,143.91C174.616,145.04 176.419,147.477 176.74,150.29C176.786,150.836 176.375,151.323 175.83,151.37L175.75,151.38Z" style="fill:white;fill-rule:nonzero;"/>
                    <path d="M219.92,177.56C213.45,177.56 208.54,174.06 205.92,167.42C205.755,166.964 205.628,166.496 205.54,166.02C205.535,165.953 205.535,165.887 205.54,165.82L205.54,77.66C205.541,77.403 205.641,77.155 205.82,76.97C207.662,75.016 210.188,73.844 212.87,73.7C218.03,73.47 234.75,79.7 236.48,86.42C237.307,89.425 237.427,92.581 236.83,95.64C241.238,95.874 245.191,98.475 247.15,102.43C250.15,108.1 248.62,112 247.63,113.65C249.46,115.14 253.63,119.2 252.95,124.65C252.7,127.225 251.678,129.665 250.02,131.65C252.932,134.736 253.965,139.164 252.72,143.22C251.712,147.227 249.019,150.609 245.34,152.49C245.97,154.7 247.03,160.31 242.76,163.99C240.159,166.304 237.089,168.03 233.76,169.05C232.205,173.37 228.391,176.5 223.85,177.18C222.555,177.428 221.239,177.555 219.92,177.56ZM207.48,165.72C207.536,166.061 207.623,166.395 207.74,166.72C210.54,173.72 215.97,176.72 223.41,175.25C230.5,173.89 231.92,168.09 231.93,168.03C232.018,167.643 232.33,167.343 232.72,167.27C235.945,166.391 238.917,164.76 241.39,162.51C245.61,158.88 243.14,152.4 243.11,152.33C243.002,152.078 243.002,151.792 243.11,151.54C243.227,151.293 243.441,151.105 243.7,151.02C243.91,150.95 248.88,149.23 250.7,142.72C251.841,139.05 250.732,135.034 247.87,132.47C247.63,132.275 247.493,131.979 247.5,131.67C247.506,131.363 247.654,131.074 247.9,130.89C247.99,130.82 250.28,129.03 250.9,124.42C251.62,118.85 245.7,114.78 245.64,114.74C245.362,114.555 245.195,114.242 245.195,113.908C245.195,113.657 245.29,113.415 245.46,113.23C245.59,113.09 248.57,109.62 245.32,103.4C243.497,99.723 239.649,97.466 235.55,97.67C235.206,97.703 234.869,97.555 234.66,97.28C234.436,96.997 234.383,96.614 234.52,96.28C235.413,93.224 235.413,89.976 234.52,86.92C233.92,84.64 230.37,81.78 225,79.26C220.44,77.12 215.23,75.59 212.93,75.7C210.895,75.808 208.967,76.655 207.51,78.08L207.48,165.72Z" style="fill:white;fill-rule:nonzero;"/>
                    <path d="M238.42,137.77L237.7,137.77C237.182,137.73 236.777,137.293 236.777,136.773C236.777,136.745 236.778,136.718 236.78,136.69C236.82,136.172 237.257,135.767 237.777,135.767C237.805,135.767 237.832,135.768 237.86,135.77C242.86,136.18 247.75,131.04 247.8,130.99C248.174,130.591 248.809,130.568 249.21,130.94C249.399,131.128 249.506,131.383 249.506,131.65C249.506,131.917 249.399,132.172 249.21,132.36C249,132.57 244.08,137.77 238.42,137.77Z" style="fill:white;fill-rule:nonzero;"/>
                    <path d="M225.86,122.73C221.898,122.674 218.147,120.908 215.58,117.89C215.443,117.714 215.369,117.498 215.369,117.275C215.369,116.726 215.821,116.274 216.37,116.274C216.679,116.274 216.97,116.417 217.16,116.66C220.08,120.073 224.731,121.495 229.06,120.3C236.4,118.3 237.2,109.67 237.23,109.3C237.271,108.781 237.71,108.377 238.23,108.377C238.78,108.377 239.233,108.83 239.233,109.38C239.233,109.407 239.232,109.433 239.23,109.46C239.23,109.89 238.3,119.92 229.59,122.23C228.374,122.557 227.12,122.725 225.86,122.73Z" style="fill:white;fill-rule:nonzero;"/>
                    <path d="M233.3,131.59C230.708,131.743 228.168,130.803 226.3,129C224.546,126.966 223.664,124.319 223.85,121.64C223.894,121.123 224.331,120.721 224.85,120.721C225.401,120.721 225.854,121.174 225.854,121.725C225.854,121.753 225.852,121.782 225.85,121.81C225.72,123.922 226.404,126.006 227.76,127.63C229.14,129.06 231.24,129.71 234.03,129.57C234.579,129.57 235.03,130.021 235.03,130.57C235.031,131.1 234.61,131.543 234.08,131.57L233.3,131.59Z" style="fill:white;fill-rule:nonzero;"/>
                    <path d="M221.27,110.88L221.1,110.88C220.624,110.796 220.275,110.378 220.275,109.895C220.275,109.837 220.28,109.778 220.29,109.72C222.73,95.94 235.29,95.66 235.44,95.66C235.989,95.66 236.44,96.111 236.44,96.66C236.44,97.209 235.989,97.66 235.44,97.66C234.98,97.66 224.38,97.95 222.23,110.07C222.141,110.531 221.739,110.87 221.27,110.88Z" style="fill:white;fill-rule:nonzero;"/>
                    <path d="M219.17,165.67C218.621,165.67 218.17,165.219 218.17,164.67C218.4,149.81 233.17,149.4 233.33,149.4C233.879,149.4 234.33,149.851 234.33,150.4C234.33,150.949 233.879,151.4 233.33,151.4C232.8,151.4 220.33,151.79 220.13,164.71C220.11,165.229 219.689,165.65 219.17,165.67Z" style="fill:white;fill-rule:nonzero;"/>
                    <path d="M228.36,152.38L228.24,152.38C227.741,152.319 227.362,151.89 227.362,151.387C227.362,151.345 227.365,151.302 227.37,151.26C227.43,150.75 228.78,138.71 216.24,137.09C215.74,137.025 215.362,136.594 215.362,136.09C215.362,135.537 215.817,135.082 216.37,135.082C216.413,135.082 216.457,135.084 216.5,135.09C231,137 229.37,151.36 229.35,151.5C229.29,151.999 228.862,152.379 228.36,152.38Z" style="fill:white;fill-rule:nonzero;"/>
                    <path d="M206.48,102.29C205.931,102.29 205.48,101.839 205.48,101.29C205.48,101.1 205.75,96.76 212.05,95.16C212.101,95.152 212.153,95.148 212.204,95.148C212.753,95.148 213.204,95.599 213.204,96.148C213.204,96.57 212.937,96.948 212.54,97.09C207.67,98.34 207.48,101.35 207.48,101.38C207.434,101.894 206.996,102.292 206.48,102.29Z" style="fill:white;fill-rule:nonzero;"/>
                    <path d="M220.16,85.89C219.612,85.889 219.162,85.438 219.162,84.89C219.162,84.643 219.254,84.404 219.42,84.22C224.8,78.22 231.11,80.52 231.42,80.62C231.812,80.765 232.074,81.14 232.074,81.558C232.074,81.678 232.052,81.798 232.01,81.91C231.865,82.302 231.49,82.564 231.072,82.564C230.952,82.564 230.832,82.542 230.72,82.5C230.51,82.42 225.39,80.62 220.95,85.56C220.75,85.783 220.459,85.904 220.16,85.89Z" style="fill:white;fill-rule:nonzero;"/>
                    <path d="M231.36,151.37L231.27,151.37C230.725,151.323 230.314,150.836 230.36,150.29C230.675,147.477 232.475,145.039 235.07,143.91C235.191,143.86 235.321,143.834 235.453,143.834C235.86,143.834 236.228,144.082 236.38,144.46C236.585,144.967 236.337,145.553 235.83,145.76C233.924,146.602 232.599,148.391 232.35,150.46C232.304,150.97 231.872,151.367 231.36,151.37Z" style="fill:white;fill-rule:nonzero;"/>
                    <path d="M324.6,103C322,94.68 307,90.8 282.19,92.09C278.35,92.29 274.35,92.623 270.19,93.09L270.62,94.09C277.469,93.344 284.351,92.951 291.24,92.91C309.43,92.91 321.4,96.34 323.57,103.4C326.93,114.4 305.9,131.31 271.87,147.4C252.704,156.318 232.931,163.87 212.7,170C195.697,175.262 178.405,179.542 160.91,182.82C149.017,185.069 136.992,186.562 124.91,187.29C101,188.53 85.91,184.82 83.56,177.11C80.3,166.53 99.84,150.34 131.86,134.72C131.86,134.37 131.75,134.02 131.69,133.66C124.35,137.23 117.58,140.89 111.51,144.57C90.27,157.41 80,169.08 82.51,177.42C84.75,184.7 96.51,188.59 116.02,188.59C118.83,188.59 121.8,188.5 124.92,188.34C137.22,187.608 149.459,186.078 161.56,183.76C178.938,180.499 196.113,176.239 213,171C232.949,164.954 252.45,157.519 271.36,148.75C279.664,144.884 287.765,140.595 295.63,135.9C316.87,123 327.15,111.35 324.6,103Z" style="fill:rgb(35,31,32);fill-rule:nonzero;"/>
                    <path d="M295.64,144.54C289.56,140.86 282.8,137.2 275.46,133.63C275.4,133.99 275.33,134.34 275.28,134.69C307.28,150.31 326.85,166.5 323.59,177.08C321.21,184.79 306.14,188.5 282.24,187.26C270.158,186.533 258.133,185.04 246.24,182.79C228.732,179.524 211.427,175.253 194.41,170C174.164,163.862 154.38,156.29 135.21,147.34C127.267,143.627 119.52,139.508 112,135C91.54,122.58 81.14,111 83.52,103.32C85.68,96.26 97.64,92.83 115.84,92.83C122.732,92.867 129.618,93.258 136.47,94C136.61,93.68 136.75,93.35 136.9,93C132.76,92.56 128.76,92.227 124.9,92C100.13,90.8 85.07,94.68 82.51,103C79.95,111.32 90.23,123 111.51,135.86C119.372,140.555 127.469,144.844 135.77,148.71C154.67,157.491 174.161,164.939 194.1,171C210.987,176.239 228.162,180.499 245.54,183.76C257.645,186.078 269.887,187.608 282.19,188.34C285.31,188.5 288.27,188.59 291.09,188.59C310.57,188.59 322.36,184.7 324.6,177.42C327.15,169.05 316.87,157.38 295.64,144.54Z" style="fill:rgb(35,31,32);fill-rule:nonzero;"/>
                    <path d="M152.71,197.15L143.29,202.55C142.468,202.24 141.598,202.081 140.72,202.08L105.72,202.08C101.688,202.08 98.37,205.398 98.37,209.43L98.37,227.72C98.37,231.752 101.688,235.07 105.72,235.07L140.72,235.07C144.752,235.07 148.07,231.752 148.07,227.72L148.07,209.43C148.065,208.396 147.844,207.374 147.42,206.43L152.71,197.15Z" style="fill:white;fill-rule:nonzero;"/>
                    <path d="M140.72,235.57L105.72,235.57C101.416,235.565 97.875,232.024 97.87,227.72L97.87,209.43C97.875,205.126 101.416,201.585 105.72,201.58L140.72,201.58C141.577,201.58 142.429,201.722 143.24,202L152.46,196.72C152.654,196.606 152.903,196.639 153.06,196.8C153.218,196.959 153.251,197.205 153.14,197.4L147.97,206.4C148.368,207.35 148.572,208.37 148.57,209.4L148.57,227.69C148.57,227.697 148.57,227.703 148.57,227.71C148.57,232.018 145.028,235.565 140.72,235.57ZM105.72,202.57C101.964,202.575 98.875,205.664 98.87,209.42L98.87,227.71C98.87,231.468 101.962,234.56 105.72,234.56L140.72,234.56C144.478,234.56 147.57,231.468 147.57,227.71L147.57,209.43C147.573,208.46 147.365,207.501 146.96,206.62C146.885,206.476 146.885,206.304 146.96,206.16L151.34,198.5L143.54,203C143.403,203.06 143.247,203.06 143.11,203C142.346,202.712 141.537,202.563 140.72,202.56L105.72,202.57Z" style="fill:rgb(209,211,212);fill-rule:nonzero;"/>
                    <path d="M286,202.08C280.432,202.023 274.916,203.155 269.82,205.4L258.18,199.22L262,210.78C259.594,213.187 258.202,216.428 258.11,219.83C258.11,229.64 270.57,237.59 285.93,237.59C301.29,237.59 313.74,229.59 313.74,219.83C313.74,210.07 301.31,202.08 286,202.08Z" style="fill:white;fill-rule:nonzero;"/>
                    <path d="M286,238.09C270.38,238.09 257.68,229.9 257.68,219.83C257.759,216.402 259.127,213.126 261.51,210.66L257.71,199.38C257.642,199.187 257.702,198.971 257.86,198.84C258.016,198.707 258.239,198.683 258.42,198.78L269.84,204.84C274.94,202.637 280.445,201.527 286,201.58C301.61,201.58 314.31,209.77 314.31,219.83C314.31,229.89 301.56,238.09 286,238.09ZM259,200.25L262.49,210.62C262.55,210.794 262.508,210.987 262.38,211.12C260.058,213.434 258.711,216.553 258.62,219.83C258.62,229.35 270.88,237.09 285.94,237.09C301,237.09 313.25,229.35 313.25,219.83C313.25,210.31 301,202.58 286,202.58C280.495,202.518 275.039,203.633 270,205.85C269.858,205.92 269.692,205.92 269.55,205.85L259,200.25Z" style="fill:rgb(209,211,212);fill-rule:nonzero;"/>
                    <path d="M136.59,38.29L98,38.29L98,72.12L131.08,72.12L136.58,77.28L134.85,72.12L136.58,72.12L136.59,38.29Z" style="fill:white;fill-rule:nonzero;"/>
                    <path d="M136.59,77.78C136.463,77.777 136.342,77.727 136.25,77.64L130.9,72.64L98,72.64C97.726,72.64 97.5,72.414 97.5,72.14L97.5,38.29C97.5,38.016 97.726,37.79 98,37.79L136.58,37.79C136.854,37.79 137.08,38.016 137.08,38.29L137.08,72.12C137.08,72.394 136.854,72.62 136.58,72.62L135.58,72.62L137.09,77.12C137.105,77.169 137.113,77.219 137.113,77.27C137.113,77.547 136.887,77.776 136.61,77.78L136.59,77.78ZM98.51,71.62L131.09,71.62C131.22,71.621 131.345,71.671 131.44,71.76L135.49,75.56L134.39,72.28C134.373,72.228 134.364,72.174 134.364,72.12C134.364,71.847 134.587,71.622 134.86,71.62L136.09,71.62L136.09,38.79L98.51,38.79L98.51,71.62Z" style="fill:rgb(209,211,212);fill-rule:nonzero;"/>
                    <path d="M117.3,164.54C113.92,164.54 113.92,169.8 117.3,169.8C120.68,169.8 120.69,164.54 117.3,164.54Z" style="fill:rgb(209,211,212);fill-rule:nonzero;"/>
                    <path d="M72.16,125.47C72.113,125.295 72.02,125.136 71.89,125.01L71.3,124.41C71.206,124.313 71.089,124.241 70.96,124.2C70.835,124.131 70.693,124.099 70.55,124.11C70.411,124.1 70.272,124.131 70.15,124.2C70.021,124.241 69.904,124.313 69.81,124.41L69.65,124.63C69.551,124.789 69.499,124.973 69.5,125.16L69.5,125.44C69.55,125.613 69.643,125.772 69.77,125.9L70.36,126.49C70.453,126.59 70.57,126.666 70.7,126.71C70.829,126.769 70.969,126.799 71.11,126.8C71.248,126.801 71.385,126.77 71.51,126.71C71.64,126.666 71.757,126.59 71.85,126.49L72.01,126.28C72.109,126.121 72.161,125.937 72.16,125.75L72.16,125.47Z" style="fill:rgb(209,211,212);fill-rule:nonzero;"/>
                    <path d="M117.08,111.14C117.036,111.01 116.96,110.893 116.86,110.8C116.768,110.701 116.65,110.628 116.52,110.59C116.399,110.521 116.259,110.489 116.12,110.5L115.84,110.5C115.665,110.547 115.506,110.64 115.38,110.77L115.21,110.99C115.119,111.152 115.07,111.334 115.07,111.52L115.07,112.11C115.082,112.386 115.192,112.648 115.38,112.85C115.468,112.952 115.582,113.028 115.71,113.07C115.839,113.129 115.979,113.159 116.12,113.16L116.4,113.16C116.575,113.113 116.734,113.02 116.86,112.89L117.03,112.68C117.121,112.518 117.169,112.336 117.17,112.15L117.17,111.56C117.171,111.415 117.14,111.272 117.08,111.14Z" style="fill:rgb(209,211,212);fill-rule:nonzero;"/>
                    <path d="M294.82,171.05C291.44,171.05 291.44,176.31 294.82,176.31C298.2,176.31 298.21,171.05 294.82,171.05Z" style="fill:rgb(209,211,212);fill-rule:nonzero;"/>
                    <path d="M328,135C324.62,135 324.61,140.25 328,140.25C331.39,140.25 331.34,135 328,135Z" style="fill:rgb(209,211,212);fill-rule:nonzero;"/>
                    <path d="M251.29,218C251.139,217.622 250.838,217.321 250.46,217.17C250.272,217.073 250.062,217.025 249.85,217.03L249.43,217.09C249.167,217.162 248.929,217.304 248.74,217.5L248.49,217.81C248.349,218.053 248.273,218.329 248.27,218.61L248.27,219.2C248.265,219.412 248.313,219.622 248.41,219.81C248.474,220.006 248.587,220.182 248.74,220.32C249.045,220.597 249.438,220.76 249.85,220.78L250.27,220.72C250.532,220.651 250.77,220.513 250.96,220.32L251.21,220C251.352,219.757 251.428,219.481 251.43,219.2L251.43,218.61C251.435,218.398 251.387,218.188 251.29,218Z" style="fill:rgb(209,211,212);fill-rule:nonzero;"/>
                    <path d="M306,51C302.944,51.079 300.061,52.45 298.07,54.77C293.171,51.208 287.061,49.712 281.07,50.61C278.385,50.829 275.833,51.878 273.77,53.61C273.09,54.25 270.25,60.19 270.57,60.11C266.95,61.02 264.65,65.11 265.17,68.77C265.878,72.504 268.52,75.593 272.1,76.87C273.263,77.294 274.456,77.629 275.67,77.87C274.033,80.149 272.001,82.117 269.67,83.68C273.588,83.62 277.301,81.9 279.88,78.95C281.63,79.6 283.23,80.6 284.95,81.31C289.16,83.07 293.95,83.05 298.4,82.18C301.634,81.67 304.691,80.368 307.3,78.39C309.923,76.371 311.436,73.22 311.37,69.91C315.37,71.04 319.3,66.91 319.25,62.75C319.18,55.56 312.46,50.71 306,51Z" style="fill:white;fill-rule:nonzero;"/>
                    <path d="M269.7,84.14C269.481,84.141 269.286,83.999 269.22,83.79C269.16,83.58 269.241,83.354 269.42,83.23C271.478,81.841 273.296,80.125 274.8,78.15C273.818,77.946 272.853,77.672 271.91,77.33C268.157,75.994 265.392,72.748 264.67,68.83C264.11,64.89 266.58,60.83 270.11,59.71C270.472,58.682 270.903,57.68 271.4,56.71C271.949,55.474 272.619,54.294 273.4,53.19C275.551,51.394 278.207,50.307 281,50.08C286.968,49.173 293.062,50.607 298,54.08C300.07,51.85 302.958,50.55 306,50.48C309.702,50.37 313.301,51.734 316,54.27C318.36,56.456 319.726,59.514 319.78,62.73C319.742,65.266 318.548,67.651 316.54,69.2C315.252,70.264 313.576,70.743 311.92,70.52C311.755,73.753 310.197,76.761 307.65,78.76C304.983,80.798 301.847,82.136 298.53,82.65C293.29,83.65 288.67,83.37 284.79,81.76C284,81.43 283.24,81.05 282.51,80.67C281.78,80.29 280.89,79.86 280.05,79.52C277.387,82.424 273.64,84.104 269.7,84.16L269.7,84.14ZM270.7,60.58C267.47,61.4 265.17,65.11 265.7,68.69C266.365,72.25 268.891,75.193 272.31,76.39C273.446,76.812 274.613,77.147 275.8,77.39C275.964,77.421 276.1,77.534 276.16,77.69C276.225,77.848 276.206,78.029 276.11,78.17C274.771,79.99 273.186,81.616 271.4,83C274.551,82.525 277.435,80.952 279.54,78.56C279.677,78.405 279.898,78.353 280.09,78.43C281.087,78.813 282.059,79.257 283,79.76C283.72,80.12 284.46,80.5 285.21,80.76C288.91,82.3 293.33,82.58 298.38,81.59C301.505,81.121 304.466,79.888 307,78C309.488,76.075 310.927,73.085 310.88,69.94C310.87,69.777 310.937,69.618 311.06,69.51C311.188,69.412 311.354,69.379 311.51,69.42C313.051,69.82 314.693,69.447 315.91,68.42C317.675,67.065 318.726,64.975 318.76,62.75C318.714,59.806 317.467,57.004 315.31,55C312.815,52.643 309.481,51.375 306.05,51.48C303.132,51.552 300.378,52.862 298.48,55.08C298.308,55.278 298.009,55.309 297.8,55.15C293.003,51.642 287.003,50.181 281.13,51.09C278.556,51.319 276.112,52.331 274.13,53.99C272.919,55.893 271.888,57.905 271.05,60C271.099,60.255 270.933,60.505 270.68,60.56L270.7,60.58Z" style="fill:rgb(209,211,212);fill-rule:nonzero;"/>
                    <path d="M292.39,113.69C290.428,113.679 288.82,112.062 288.82,110.1C288.82,108.131 290.441,106.51 292.41,106.51C294.379,106.51 296,108.131 296,110.1C296,110.1 296,110.1 296,110.1C296,112.069 294.379,113.69 292.41,113.69C292.403,113.69 292.397,113.69 292.39,113.69ZM292.39,107.51C290.977,107.521 289.82,108.687 289.82,110.1C289.82,111.521 290.989,112.69 292.41,112.69C293.831,112.69 295,111.521 295,110.1C295,110.1 295,110.1 295,110.1C295,108.679 293.831,107.51 292.41,107.51C292.403,107.51 292.397,107.51 292.39,107.51Z" style="fill:rgb(209,211,212);fill-rule:nonzero;"/>
                    <path d="M209.39,41.88C207.428,41.869 205.82,40.252 205.82,38.29C205.82,36.321 207.441,34.7 209.41,34.7C211.379,34.7 213,36.321 213,38.29C213,38.29 213,38.29 213,38.29C213,40.259 211.379,41.88 209.41,41.88C209.403,41.88 209.397,41.88 209.39,41.88ZM209.39,35.7C207.977,35.711 206.82,36.877 206.82,38.29C206.82,39.711 207.989,40.88 209.41,40.88C210.831,40.88 212,39.711 212,38.29C212,38.29 212,38.29 212,38.29C212,36.869 210.831,35.7 209.41,35.7C209.403,35.7 209.397,35.7 209.39,35.7Z" style="fill:rgb(209,211,212);fill-rule:nonzero;"/>
                    <path d="M96.09,140.71C96.087,140.71 96.083,140.71 96.08,140.71C94.67,140.71 93.51,139.55 93.51,138.14C93.51,136.73 94.67,135.57 96.08,135.57C97.49,135.57 98.65,136.73 98.65,138.14C98.65,138.143 98.65,138.147 98.65,138.15C98.65,139.554 97.494,140.71 96.09,140.71ZM96.09,136.58L96.08,136.58C95.219,136.58 94.51,137.289 94.51,138.15C94.51,139.011 95.219,139.72 96.08,139.72C96.941,139.72 97.65,139.011 97.65,138.15C97.65,138.147 97.65,138.143 97.65,138.14C97.65,137.284 96.946,136.58 96.09,136.58Z" style="fill:rgb(209,211,212);fill-rule:nonzero;"/>
                    <path d="M243.34,44.22C242.764,44.22 242.29,44.694 242.29,45.27C242.29,45.846 242.764,46.32 243.34,46.32C243.916,46.32 244.39,45.846 244.39,45.27C244.39,44.694 243.916,44.22 243.34,44.22Z" style="fill:rgb(209,211,212);fill-rule:nonzero;"/>
                    <path d="M159.91,45.54C157.2,45.54 157.2,49.74 159.91,49.74C162.62,49.74 162.62,45.54 159.91,45.54Z" style="fill:rgb(209,211,212);fill-rule:nonzero;"/>
                    <path d="M138.38,214.66L111,214.66C110.726,214.66 110.5,214.434 110.5,214.16C110.505,213.888 110.728,213.665 111,213.66L138.41,213.66C138.684,213.66 138.91,213.886 138.91,214.16C138.91,214.16 138.91,214.161 138.91,214.161C138.91,214.435 138.684,214.661 138.41,214.661C138.4,214.661 138.39,214.661 138.38,214.66Z" style="fill:rgb(209,211,212);fill-rule:nonzero;"/>
                    <path d="M130.77,223.21L111,223.21C110.726,223.21 110.5,222.984 110.5,222.71C110.505,222.438 110.728,222.215 111,222.21L130.8,222.21C131.074,222.21 131.3,222.436 131.3,222.71C131.3,222.71 131.3,222.711 131.3,222.711C131.3,222.985 131.074,223.211 130.8,223.211C130.79,223.211 130.78,223.211 130.77,223.21Z" style="fill:rgb(209,211,212);fill-rule:nonzero;"/>
                    <path d="M301.78,215.89L270.52,215.89C270.246,215.89 270.02,215.664 270.02,215.39C270.025,215.118 270.248,214.895 270.52,214.89L301.78,214.89C302.052,214.895 302.275,215.118 302.28,215.39C302.28,215.664 302.054,215.89 301.78,215.89Z" style="fill:rgb(209,211,212);fill-rule:nonzero;"/>
                    <path d="M296.57,225.12L270.52,225.12C270.248,225.115 270.025,224.892 270.02,224.62C270.02,224.346 270.246,224.12 270.52,224.12L296.57,224.12C296.844,224.12 297.07,224.346 297.07,224.62C297.065,224.892 296.842,225.115 296.57,225.12Z" style="fill:rgb(209,211,212);fill-rule:nonzero;"/>
                    <path d="M129.6,46L104.74,46C104.466,46 104.24,45.774 104.24,45.5C104.24,45.226 104.466,45 104.74,45L129.6,45C129.874,45 130.1,45.226 130.1,45.5C130.1,45.774 129.874,46 129.6,46Z" style="fill:rgb(209,211,212);fill-rule:nonzero;"/>
                    <path d="M129.6,52.16L104.74,52.16C104.466,52.16 104.24,51.934 104.24,51.66C104.24,51.386 104.466,51.16 104.74,51.16L129.6,51.16C129.874,51.16 130.1,51.386 130.1,51.66C130.1,51.934 129.874,52.16 129.6,52.16Z" style="fill:rgb(209,211,212);fill-rule:nonzero;"/>
                    <path d="M129.6,58.29L104.74,58.29C104.466,58.29 104.24,58.064 104.24,57.79C104.24,57.516 104.466,57.29 104.74,57.29L129.6,57.29C129.874,57.29 130.1,57.516 130.1,57.79C130.1,58.064 129.874,58.29 129.6,58.29Z" style="fill:rgb(209,211,212);fill-rule:nonzero;"/>
                    <path d="M123.74,64.42L104.74,64.42C104.466,64.42 104.24,64.194 104.24,63.92C104.24,63.646 104.466,63.42 104.74,63.42L123.74,63.42C124.014,63.42 124.24,63.646 124.24,63.92C124.235,64.192 124.012,64.415 123.74,64.42Z" style="fill:rgb(209,211,212);fill-rule:nonzero;"/>
                    <path d="M281.41,65.54C280.861,65.54 280.41,65.991 280.41,66.54C280.41,67.089 280.861,67.54 281.41,67.54C281.959,67.54 282.41,67.089 282.41,66.54C282.41,65.991 281.959,65.54 281.41,65.54Z" style="fill:rgb(209,211,212);fill-rule:nonzero;"/>
                    <path d="M291.42,65.54C290.871,65.54 290.42,65.991 290.42,66.54C290.42,67.089 290.871,67.54 291.42,67.54C291.969,67.54 292.42,67.089 292.42,66.54C292.42,65.991 291.969,65.54 291.42,65.54Z" style="fill:rgb(209,211,212);fill-rule:nonzero;"/>
                    <path d="M301.43,65.54C300.881,65.54 300.43,65.991 300.43,66.54C300.43,67.089 300.881,67.54 301.43,67.54C301.979,67.54 302.43,67.089 302.43,66.54C302.43,65.991 301.979,65.54 301.43,65.54Z" style="fill:rgb(209,211,212);fill-rule:nonzero;"/>
                </g>
            </g>
        </g>
        <g transform="matrix(1.87275,0,0,1.72985,-365.792,-158.544)">
            <rect x="363.26" y="333.638" width="67.018" height="70.719" style="fill:white;"/>
        </g>
        <g transform="matrix(1.993,0,0,1.61686,38.0873,-117.872)">
            <rect x="363.26" y="333.638" width="67.018" height="70.719" style="fill:white;"/>
        </g>
        <g transform="matrix(2.72641,0,0,1.39668,-208.65,-4.0327)">
            <rect x="363.26" y="333.638" width="67.018" height="70.719" style="fill:white;"/>
        </g>
        <g transform="matrix(1.50971,0,0,1.26119,-173.43,-4.74006)">
            <ellipse cx="272.463" cy="245.693" rx="144.956" ry="137.559" style="fill:rgb(235,235,235);"/>
        </g>
        <g transform="matrix(1,0,0,1,-540.562,94.8991)">
            <text x="659.695px" y="184.914px" style="font-family:'ArialMT', 'Arial', sans-serif;font-size:48px;">Productivity</text>
            <text x="693.909px" y="274.914px" style="font-family:'ArialMT', 'Arial', sans-serif;font-size:54px;">+</text>
            <text x="725.445px" y="274.914px" style="font-family:'ArialMT', 'Arial', sans-serif;font-size:90px;">25</text>
            <text x="825.552px" y="274.914px" style="font-family:'ArialMT', 'Arial', sans-serif;font-size:54px;">%</text>
        </g>
        <g transform="matrix(1.50971,0,0,1.26119,530.179,-4.74006)">
            <ellipse cx="272.463" cy="245.693" rx="144.956" ry="137.559" style="fill:rgb(235,235,235);"/>
        </g>
        <g transform="matrix(1,0,0,1,163.047,94.8991)">
            <text x="674.32px" y="184.914px" style="font-family:'ArialMT', 'Arial', sans-serif;font-size:48px;">happiness</text>
            <text x="693.909px" y="274.914px" style="font-family:'ArialMT', 'Arial', sans-serif;font-size:54px;">+</text>
            <text x="725.445px" y="274.914px" style="font-family:'ArialMT', 'Arial', sans-serif;font-size:90px;">30</text>
            <text x="825.552px" y="274.914px" style="font-family:'ArialMT', 'Arial', sans-serif;font-size:54px;">%</text>
        </g>
    </g>
</svg>
