<?xml version="1.0" encoding="UTF-8" standalone="no"?>
<!DOCTYPE svg PUBLIC "-//W3C//DTD SVG 1.1//EN" "http://www.w3.org/Graphics/SVG/1.1/DTD/svg11.dtd">
<svg width="100%" height="100%" viewBox="0 0 400 300" version="1.1" xmlns="http://www.w3.org/2000/svg" xmlns:xlink="http://www.w3.org/1999/xlink" xml:space="preserve" xmlns:serif="http://www.serif.com/" style="fill-rule:evenodd;clip-rule:evenodd;stroke-linejoin:round;stroke-miterlimit:2;">
    <g transform="matrix(1.1581,0,0,1.1581,-34.4788,-23.1871)">
        <g transform="matrix(1,0,0,1,2.47201,-2.0808)">
            <ellipse cx="197.16" cy="255.63" rx="142.7" ry="7.85" style="fill:rgb(230,230,230);fill-opacity:0.45;"/>
        </g>
        <g transform="matrix(1,0,0,1,2.47201,-2.0808)">
            <path d="M101.34,71.26C69.25,83.06 45.45,113 40.75,149.15C36.75,179.64 54.29,228.67 111.4,234.52C196.06,243.2 322.4,250 350,198.87C368.85,163.93 366,82.94 291.29,61.81C249.08,49.86 164,48.22 101.34,71.26Z" style="fill:rgb(230,230,230);fill-opacity:0.3;fill-rule:nonzero;"/>
        </g>
        <g transform="matrix(1,0,0,1,2.47201,-2.0808)">
            <path d="M322.5,76.84C335.21,59.01 328.73,39.77 328.73,39.77C306.07,51.09 302.11,71.93 301.89,84C298.36,50 268.31,44.22 268.31,44.22C267.31,63.49 276.51,76.01 285.55,83.61C262.74,76.55 242.55,90.4 242.55,90.4C265.21,108.73 284.88,103 295,97.65C287.1,107 272.72,127 266.38,162C261.38,189.47 261.38,254.07 261.38,254.07L283.71,254.07C283.71,254.07 270.34,153.77 304.29,97.17C322.37,128.47 353.17,120 353.17,120C347.77,107.48 339.32,100.22 330.78,96C350.08,92.52 359.28,77 359.28,77C344.77,71 332.19,72.77 322.5,76.84Z" style="fill:rgb(230,230,230);fill-rule:nonzero;"/>
        </g>
        <g transform="matrix(1,0,0,1,2.47201,-2.0808)">
            <rect x="212.07" y="91.04" width="15.27" height="24.18" style="fill:rgb(230,230,230);"/>
        </g>
        <g transform="matrix(1,0,0,1,2.47201,-2.0808)">
            <rect x="213.73" y="97.61" width="11.95" height="15.05" style="fill:rgb(255,210,0);"/>
        </g>
        <g transform="matrix(1,0,0,1,2.47201,-2.0808)">
            <path d="M126,78.59C126,78.59 129,85.34 129.48,90.38C129.488,90.48 129.492,90.581 129.492,90.682C129.492,92.605 127.997,94.226 126.08,94.38C123.54,94.57 120.08,94.09 117.98,90.67L113.76,85.3C112.266,82.917 112.439,79.832 114.19,77.63C117.12,73.44 124.34,74.38 126,78.59Z" style="fill:rgb(244,162,140);fill-rule:nonzero;"/>
        </g>
        <g transform="matrix(1,0,0,1,2.47201,-2.0808)">
            <path d="M114.51,86.29L118.81,110.16L131.8,106.85L123.45,90.81L114.51,86.29Z" style="fill:rgb(244,162,140);fill-rule:nonzero;"/>
        </g>
        <g transform="matrix(1,0,0,1,2.47201,-2.0808)">
            <path d="M124.35,79.48C122.222,80.321 120.004,80.911 117.74,81.24C119.697,82.726 120.588,85.244 120,87.63C119.473,89.973 117.33,91.622 114.93,91.53L111.93,82.53C110.958,79.938 111.494,77.011 113.32,74.93C114.09,74.036 114.919,73.194 115.8,72.41C118.02,70.48 122.41,70.88 124.12,68.32C124.453,67.832 125.007,67.539 125.599,67.539C126.26,67.539 126.87,67.906 127.18,68.49C128.54,71.08 129.55,75.55 126.38,78.33C125.772,78.824 125.086,79.213 124.35,79.48Z" style="fill:rgb(36,40,91);fill-rule:nonzero;"/>
        </g>
        <g transform="matrix(1,0,0,1,2.47201,-2.0808)">
            <path d="M120.64,87.16C120.64,87.16 119.64,84.49 117.7,85.41C115.76,86.33 117.17,90.19 120.04,89.59L120.64,87.16Z" style="fill:rgb(244,162,140);fill-rule:nonzero;"/>
        </g>
        <g transform="matrix(1,0,0,1,2.47201,-2.0808)">
            <path d="M127.68,82.94L130.56,84.94C130.882,85.16 131.075,85.525 131.075,85.915C131.075,86.338 130.848,86.73 130.48,86.94L128,88.39L127.68,82.94Z" style="fill:rgb(244,162,140);fill-rule:nonzero;"/>
        </g>
        <g transform="matrix(1,0,0,1,2.47201,-2.0808)">
            <path d="M125.43,94.24C123.721,94.397 122.003,94.049 120.49,93.24C118.977,92.431 122.13,97.37 128.17,99.9L125.43,94.24Z" style="fill:rgb(206,129,114);fill-opacity:0.31;fill-rule:nonzero;"/>
        </g>
        <g transform="matrix(1,0,0,1,2.47201,-2.0808)">
            <path d="M118.81,110.16L131.81,106.85C131.81,106.85 159.36,105.53 166.5,129.38C173.64,153.23 184.62,186.38 184.62,186.38L149.26,198.9C149.26,198.9 67,142.17 118.81,110.16Z" style="fill:rgb(104,225,253);fill-rule:nonzero;"/>
        </g>
        <g transform="matrix(1,0,0,1,2.47201,-2.0808)">
            <path d="M120.67,131.62C120.67,131.62 114.67,152.13 138.01,164.36C161.35,176.59 168.57,189.9 168.57,189.9L184.57,186.35L174.09,155L121.43,131.1L120.67,131.62Z" style="fill-opacity:0.08;fill-rule:nonzero;"/>
        </g>
        <g transform="matrix(1,0,0,1,2.47201,-2.0808)">
            <path d="M215.68,104C209.03,99.94 204.56,111.83 204.56,111.83L187.87,145.56C186.595,148.151 183.947,149.8 181.059,149.8C179.428,149.8 177.839,149.274 176.53,148.3C167.44,141.413 159.533,133.09 153.12,123.66C145.12,112.06 135.87,110.99 129.12,112.44C122.95,113.764 118.769,119.66 119.56,125.92C123.26,156.52 161.56,166.73 181.11,169.92C187.554,170.988 193.915,167.334 196.24,161.23L213.4,116.23C213.4,116.23 222.32,108 215.68,104Z" style="fill:rgb(244,162,140);fill-rule:nonzero;"/>
        </g>
        <g transform="matrix(1,0,0,1,2.47201,-2.0808)">
            <path d="M149.58,199.08L215.71,174C223.326,171.418 231.722,175.51 234.38,183.1L242.53,206.35L234.43,208.5L227.43,194.55C226.121,191.939 223.44,190.284 220.52,190.284C218.893,190.284 217.308,190.797 215.99,191.75C200.36,203.08 155.87,230.73 149.58,199.08Z" style="fill:rgb(36,40,91);fill-rule:nonzero;"/>
        </g>
        <g transform="matrix(1,0,0,1,2.47201,-2.0808)">
            <path d="M234.38,183.1C231.722,175.51 223.326,171.418 215.71,174L213.52,174.83C213.47,181.27 213.07,187.7 212.59,194.13C213.82,193.28 214.95,192.48 215.96,191.75C217.278,190.797 218.863,190.284 220.49,190.284C223.41,190.284 226.091,191.939 227.4,194.55L234.4,208.5L242.5,206.35L234.38,183.1Z" style="fill:rgb(244,162,140);fill-rule:nonzero;"/>
        </g>
        <g transform="matrix(1,0,0,1,2.47201,-2.0808)">
            <path d="M234.38,183.1C231.722,175.51 223.326,171.418 215.71,174L213.52,174.83C213.47,181.27 213.07,187.7 212.59,194.13C213.82,193.28 214.95,192.48 215.96,191.75C217.278,190.797 218.863,190.284 220.49,190.284C223.41,190.284 226.091,191.939 227.4,194.55L234.4,208.5L242.5,206.35L234.38,183.1Z" style="fill-opacity:0.08;fill-rule:nonzero;"/>
        </g>
        <g transform="matrix(1,0,0,1,2.47201,-2.0808)">
            <path d="M163.06,213.5L212.69,214.21L215.71,198.94L191.76,190.86L163.06,213.5Z" style="fill:rgb(36,40,91);fill-rule:nonzero;"/>
        </g>
        <g transform="matrix(1,0,0,1,2.47201,-2.0808)">
            <path d="M215.71,198.94L274.06,207.94C274.06,207.94 281.18,197.19 282.74,198.94C284.3,200.69 276.07,215.14 276.07,215.14L212.69,214.21L215.71,198.94Z" style="fill:rgb(244,162,140);fill-rule:nonzero;"/>
        </g>
        <g transform="matrix(1,0,0,1,2.47201,-2.0808)">
            <circle cx="227.34" cy="90.75" r="3.74" style="fill:rgb(255,210,0);"/>
        </g>
        <g transform="matrix(1,0,0,1,2.47201,-2.0808)">
            <path d="M86.18,121.32C82.279,123.893 81.024,129.115 83.33,133.18L129.05,213.77L149.58,213.77L98.86,124.37C97.279,121.576 94.307,119.843 91.097,119.843C89.349,119.843 87.639,120.357 86.18,121.32Z" style="fill:rgb(204,204,204);fill-rule:nonzero;"/>
        </g>
        <g transform="matrix(-3.82857e-16,1,-1,-3.82857e-16,431.312,10.0392)">
            <rect x="201.65" y="111.71" width="13.41" height="217.54" style="fill:rgb(204,204,204);"/>
        </g>
        <g transform="matrix(1,0,0,1,2.47201,-2.0808)">
            <path d="M120.15,253.49L114.34,253.49L126.15,220.48L131.97,220.48L120.15,253.49Z" style="fill:rgb(204,204,204);fill-rule:nonzero;"/>
        </g>
        <g transform="matrix(1,0,0,1,2.47201,-2.0808)">
            <path d="M299.36,253.49L305.17,253.49L293.36,220.48L287.54,220.48L299.36,253.49Z" style="fill:rgb(204,204,204);fill-rule:nonzero;"/>
        </g>
        <g transform="matrix(1,0,0,1,2.47201,-2.0808)">
            <path d="M103.76,255.1C103.76,255.1 108.39,248.44 101.49,246.61C94.59,244.78 103.15,235.8 96.72,234.61C90.29,233.42 91.37,242.92 91.37,242.92C91.37,242.92 86.93,239.1 83.87,242.31C80.81,245.52 85.09,249.05 85.09,249.05C85.09,249.05 78.91,251.19 82.76,255.05L103.76,255.1Z" style="fill:rgb(230,230,230);fill-rule:nonzero;"/>
        </g>
        <g transform="matrix(1,0,0,1,2.47201,-2.0808)">
            <path d="M94.48,256C94.48,256 97.42,251 101.75,251.59C106.08,252.18 105.62,256 105.62,256L94.48,256Z" style="fill:rgb(201,201,201);fill-rule:nonzero;"/>
        </g>
    </g>
</svg>
