<svg width="89" height="91" viewBox="0 0 89 91" fill="none" xmlns="http://www.w3.org/2000/svg">
<path d="M87 43.5C87 67.5244 67.5244 87 43.5 87C19.4756 87 0 67.5244 0 43.5C0 19.4756 19.4756 0 43.5 0C67.5244 0 87 19.4756 87 43.5Z" fill="#FBE544"/>
<circle cx="56.5" cy="38.5" r="4.5" fill="black"/>
<circle cx="31.5" cy="38.5" r="4.5" fill="black"/>
<path fill-rule="evenodd" clip-rule="evenodd" d="M32.9588 76.7171C58.2567 78.8905 80.5277 60.1332 82.7023 34.8213C83.019 31.1354 82.892 27.5137 82.3659 24.0091C85.8778 30.97 87.5629 38.962 86.8464 47.3018C84.7899 71.2381 63.7294 88.976 39.8063 86.9207C24.6821 85.6213 12.0345 76.722 5.29663 64.3033C12.5857 71.2122 22.1771 75.7908 32.9588 76.7171Z" fill="#F5DB40"/>
<ellipse cx="68.5" cy="48" rx="5.5" ry="3" fill="#FFC643"/>
<ellipse cx="18.5" cy="48" rx="5.5" ry="3" fill="#FFC643"/>
<path d="M52 51.5C53.1046 51.5 54.0218 52.4061 53.7796 53.4838C53.3796 55.2633 52.4463 56.9111 51.0711 58.2175C49.1957 59.9991 46.6522 61 44 61C41.3478 61 38.8043 59.9991 36.9289 58.2175C35.5537 56.9111 34.6204 55.2633 34.2204 53.4838C33.9782 52.4061 34.8954 51.5 36 51.5L44 51.5H52Z" fill="#FF9243"/>
</svg>
