<?xml version="1.0" encoding="UTF-8" standalone="no"?>
<!DOCTYPE svg PUBLIC "-//W3C//DTD SVG 1.1//EN" "http://www.w3.org/Graphics/SVG/1.1/DTD/svg11.dtd">
<svg width="100%" height="100%" viewBox="0 0 860 600" version="1.1" xmlns="http://www.w3.org/2000/svg" xmlns:xlink="http://www.w3.org/1999/xlink" xml:space="preserve" xmlns:serif="http://www.serif.com/" style="fill-rule:evenodd;clip-rule:evenodd;stroke-linejoin:round;stroke-miterlimit:2;">
    <g transform="matrix(2.20015,0,0,2.20015,-9.9882,-30.0626)">
        <g>
            <g id="_515_data_storage_flatline">
                <path d="M154.24,102.67C151.61,100.14 149.45,98.13 147.36,96.05C137.27,86.05 122.61,83.05 110.16,88.63C97.27,94.4 89.69,106.89 90.7,121.41C90.93,124.77 89.87,125.8 86.8,126.57C65.43,131.92 49.8,151.17 48.93,172.79C47.8,202.39 70.15,225.7 99.83,225.72C168.15,225.76 236.483,225.76 304.83,225.72C307.453,225.71 310.073,225.52 312.67,225.15C334.31,222.15 350.92,203.15 351.16,181.08C351.4,158.5 335.29,138.98 313.47,135.71C308.47,134.96 303.29,134.99 298.19,134.71C306.88,89.32 276.83,56.2 246.46,48.05C229.91,43.62 213.69,44.28 197.95,51.05C174.92,60.84 161.12,78.76 154.24,102.67Z" style="fill:rgb(104,225,253);fill-rule:nonzero;"/>
                <path d="M180.29,226.24L99.83,226.24C99.533,226.245 99.236,226.248 98.939,226.248C71.186,226.248 48.349,203.411 48.349,175.658C48.349,174.701 48.376,173.745 48.43,172.79C49.468,150.553 65.081,131.499 86.68,126.11C89.46,125.41 90.41,124.6 90.2,121.47C89.2,106.85 96.76,94.1 109.96,88.19C122.62,82.53 137.44,85.48 147.71,95.72C149.11,97.11 150.51,98.45 152.13,99.99L153.99,101.75C161.3,77.08 175.99,59.86 197.71,50.55C213.03,43.97 229.45,42.96 246.54,47.55C262.54,51.85 277.44,62.63 287.34,77.11C295.24,88.69 303.59,107.96 298.74,134.22C300.16,134.31 301.58,134.37 303,134.43C306.509,134.512 310.01,134.782 313.49,135.24C335.49,138.53 351.86,158.24 351.61,181.11C351.36,203.48 334.61,222.64 312.69,225.66C310.07,226.033 307.427,226.227 304.78,226.24C264.56,226.22 222.61,226.24 180.29,226.24ZM123.29,86.33C118.846,86.327 114.453,87.267 110.4,89.09C97.59,94.81 90.25,107.19 91.23,121.38C91.49,125.21 89.99,126.3 86.95,127.06C65.782,132.343 50.48,151.016 49.46,172.81C49.407,173.748 49.38,174.688 49.38,175.628C49.38,202.838 71.77,225.228 98.98,225.228C99.273,225.228 99.567,225.225 99.86,225.22L304.86,225.22C307.46,225.21 310.056,225.02 312.63,224.65C334.09,221.65 350.45,202.96 350.69,181.08C350.93,158.71 334.91,139.42 313.42,136.21C309.976,135.761 306.512,135.491 303.04,135.4C301.42,135.34 299.8,135.27 298.19,135.17C298.046,135.162 297.913,135.088 297.83,134.97C297.738,134.859 297.701,134.711 297.73,134.57C302.73,108.36 294.44,89.16 286.59,77.66C276.83,63.36 262.17,52.74 246.36,48.5C229.42,44 213.21,45 198.1,51.44C176.15,60.86 162,77.66 154.72,102.8C154.672,102.969 154.539,103.102 154.37,103.15C154.2,103.192 154.02,103.147 153.89,103.03L151.44,100.69C149.88,99.21 148.44,97.81 147,96.41C140.739,90.037 132.194,86.408 123.26,86.33L123.29,86.33Z" style="fill:rgb(35,31,32);fill-rule:nonzero;"/>
                <rect x="148.6" y="168.02" width="102.8" height="55.83" style="fill:rgb(209,211,212);"/>
                <path d="M251.4,224.35L148.6,224.35C148.326,224.35 148.1,224.124 148.1,223.85L148.1,168C148.105,167.728 148.328,167.505 148.6,167.5L251.4,167.5C251.672,167.505 251.895,167.728 251.9,168L251.9,223.85C251.9,224.124 251.675,224.35 251.4,224.35ZM149.1,223.35L250.9,223.35L250.9,168.52L149.1,168.52L149.1,223.35Z" style="fill:rgb(35,31,32);fill-rule:nonzero;"/>
                <rect x="148.6" y="139.81" width="102.8" height="27.92" style="fill:rgb(35,31,32);"/>
                <path d="M251.4,168.23L148.6,168.23C148.328,168.225 148.105,168.002 148.1,167.73L148.1,139.81C148.1,139.536 148.326,139.31 148.6,139.31L251.4,139.31C251.674,139.31 251.9,139.536 251.9,139.81L251.9,167.73C251.895,168.002 251.672,168.225 251.4,168.23ZM149.1,167.23L250.9,167.23L250.9,140.31L149.1,140.31L149.1,167.23Z" style="fill:rgb(35,31,32);fill-rule:nonzero;"/>
                <rect x="162.85" y="145.9" width="83.03" height="39.93" style="fill:white;"/>
                <path d="M245.88,186.33L162.88,186.33C162.608,186.325 162.385,186.102 162.38,185.83L162.38,145.9C162.38,145.626 162.606,145.4 162.88,145.4L245.88,145.4C246.154,145.4 246.38,145.626 246.38,145.9L246.38,185.83C246.38,186.104 246.154,186.33 245.88,186.33ZM163.35,185.33L245.35,185.33L245.35,146.4L163.35,146.4L163.35,185.33Z" style="fill:rgb(35,31,32);fill-rule:nonzero;"/>
                <path d="M242.24,155.2L242.24,148.39L208.66,148.39L204.22,155.2L158.12,155.2L158.12,194.86L247.74,194.86L247.74,155.2L242.24,155.2Z" style="fill:rgb(104,225,253);fill-rule:nonzero;"/>
                <path d="M247.74,195.36L158.12,195.36C157.846,195.36 157.62,195.134 157.62,194.86L157.62,155.2C157.62,154.926 157.846,154.7 158.12,154.7L204,154.7L208.3,148.12C208.39,147.98 208.544,147.894 208.71,147.89L242.29,147.89C242.564,147.89 242.79,148.116 242.79,148.39L242.79,154.7L247.79,154.7C248.064,154.7 248.29,154.926 248.29,155.2L248.29,194.863C248.29,195.137 248.064,195.363 247.79,195.363C247.773,195.363 247.757,195.362 247.74,195.36ZM158.62,194.36L247.24,194.36L247.24,155.7L242.24,155.7C241.966,155.7 241.74,155.474 241.74,155.2L241.74,148.89L208.93,148.89L204.63,155.48C204.539,155.618 204.385,155.7 204.22,155.7L158.62,155.7L158.62,194.36Z" style="fill:rgb(35,31,32);fill-rule:nonzero;"/>
                <g transform="matrix(-1,7.65714e-16,-7.65714e-16,-1,396.93,358.51)">
                    <rect x="154.24" y="159.29" width="88.46" height="39.93" style="fill:white;"/>
                </g>
                <path d="M242.7,199.72L154.24,199.72C153.966,199.72 153.74,199.494 153.74,199.22L153.74,159.29C153.74,159.016 153.966,158.79 154.24,158.79L242.7,158.79C242.974,158.79 243.2,159.016 243.2,159.29L243.2,199.22C243.2,199.494 242.974,199.72 242.7,199.72ZM154.7,198.72L242.2,198.72L242.2,159.79L154.74,159.79L154.7,198.72Z" style="fill:rgb(35,31,32);fill-rule:nonzero;"/>
                <path d="M158.12,168.6L158.12,161.79L193.89,161.79L198.63,168.6L247.74,168.6L247.74,208.25L152.26,208.25L152.26,168.6L158.12,168.6Z" style="fill:rgb(104,225,253);fill-rule:nonzero;"/>
                <path d="M247.74,208.75L152.26,208.75C151.986,208.75 151.76,208.524 151.76,208.25L151.76,168.6C151.76,168.326 151.986,168.1 152.26,168.1L157.62,168.1L157.62,161.79C157.62,161.516 157.846,161.29 158.12,161.29L193.89,161.29C194.053,161.287 194.207,161.366 194.3,161.5L198.89,168.1L247.74,168.1C248.014,168.1 248.24,168.326 248.24,168.6L248.24,208.25C248.24,208.524 248.014,208.75 247.74,208.75ZM152.74,207.75L247.22,207.75L247.22,169.1L198.63,169.1C198.465,169.1 198.311,169.018 198.22,168.88L193.63,162.29L158.63,162.29L158.63,168.6C158.63,168.874 158.404,169.1 158.13,169.1L152.77,169.1L152.74,207.75Z" style="fill:rgb(35,31,32);fill-rule:nonzero;"/>
                <rect x="158.7" y="171.62" width="88.46" height="39.93" style="fill:white;"/>
                <path d="M247.16,212.06L158.7,212.06C158.426,212.06 158.2,211.834 158.2,211.56L158.2,171.62C158.2,171.346 158.426,171.12 158.7,171.12L247.16,171.12C247.434,171.12 247.66,171.346 247.66,171.62L247.66,211.56C247.66,211.834 247.434,212.06 247.16,212.06ZM159.16,211.06L246.62,211.06L246.62,172.12L159.2,172.12L159.16,211.06Z" style="fill:rgb(35,31,32);fill-rule:nonzero;"/>
                <rect x="157.3" y="174.89" width="88.46" height="39.93" style="fill:white;"/>
                <path d="M245.76,215.32L157.3,215.32C157.026,215.32 156.8,215.094 156.8,214.82L156.8,174.89C156.8,174.616 157.026,174.39 157.3,174.39L245.76,174.39C246.034,174.39 246.26,174.616 246.26,174.89L246.26,214.82C246.26,215.094 246.034,215.32 245.76,215.32ZM157.76,214.32L245.22,214.32L245.22,175.39L157.8,175.39L157.76,214.32Z" style="fill:rgb(35,31,32);fill-rule:nonzero;"/>
                <path d="M241.88,184.2L241.88,177.39L206.11,177.39L201.37,184.2L152.26,184.2L152.26,223.85L247.74,223.85L247.74,184.2L241.88,184.2Z" style="fill:rgb(104,225,253);fill-rule:nonzero;"/>
                <path d="M247.74,224.35L152.26,224.35C151.986,224.35 151.76,224.124 151.76,223.85L151.76,184.2C151.76,183.926 151.986,183.7 152.26,183.7L201.11,183.7L205.7,177.1C205.793,176.966 205.947,176.887 206.11,176.89L241.88,176.89C242.154,176.89 242.38,177.116 242.38,177.39L242.38,183.7L247.74,183.7C248.014,183.7 248.24,183.926 248.24,184.2L248.24,223.85C248.24,224.124 248.014,224.35 247.74,224.35ZM152.74,223.35L247.22,223.35L247.22,184.7L241.86,184.7C241.586,184.7 241.36,184.474 241.36,184.2L241.36,177.89L206.36,177.89L201.77,184.48C201.679,184.618 201.525,184.7 201.36,184.7L152.76,184.7L152.74,223.35Z" style="fill:rgb(35,31,32);fill-rule:nonzero;"/>
                <rect x="144.01" y="202.25" width="111.98" height="52.56" style="fill:white;"/>
                <path d="M256,255.31L144,255.31C143.726,255.31 143.5,255.084 143.5,254.81L143.5,202.25C143.5,201.976 143.726,201.75 144,201.75L256,201.75C256.274,201.75 256.5,201.976 256.5,202.25L256.5,254.81C256.5,255.084 256.274,255.31 256,255.31ZM144.52,254.31L255.52,254.31L255.52,202.75L144.52,202.75L144.52,254.31Z" style="fill:rgb(35,31,32);fill-rule:nonzero;"/>
                <path d="M251.48,250.62L148.48,250.62C148.206,250.62 147.98,250.394 147.98,250.12L147.98,207C147.98,206.726 148.206,206.5 148.48,206.5L251.48,206.5C251.754,206.5 251.98,206.726 251.98,207L251.98,250.17C251.954,250.425 251.736,250.621 251.48,250.62ZM149.02,249.62L251,249.62L251,207.45L149,207.45L149.02,249.62Z" style="fill:rgb(230,231,232);fill-rule:nonzero;"/>
                <path d="M214.89,235.4L185.11,235.4C181.39,235.4 178.59,233.4 178.59,230.77L178.59,227.58L182.59,227.58L182.59,230.65C183.309,231.202 184.207,231.469 185.11,231.4L214.89,231.4C215.793,231.469 216.691,231.202 217.41,230.65L217.41,227.58L221.41,227.58L221.41,230.77C221.41,233.41 218.61,235.4 214.89,235.4Z" style="fill:rgb(35,31,32);fill-rule:nonzero;"/>
                <path d="M198.47,198.65C198.47,198.65 200.19,198.37 202.93,202.25L187.81,202.25C187.81,202.25 193.17,200.37 198.47,198.65Z" style="fill:rgb(35,31,32);fill-rule:nonzero;"/>
                <path d="M202.93,202.75L187.81,202.75C187.567,202.754 187.354,202.58 187.31,202.34C187.272,202.099 187.411,201.863 187.64,201.78C187.7,201.78 193.07,199.88 198.31,198.17L198.39,198.17C198.59,198.17 200.5,197.96 203.39,201.98C203.489,202.139 203.489,202.341 203.39,202.5C203.3,202.667 203.119,202.765 202.93,202.75ZM190.78,201.75L201.94,201.75C200.01,199.3 198.77,199.15 198.56,199.14C195.7,200.07 192.82,201.05 190.78,201.75Z" style="fill:rgb(35,31,32);fill-rule:nonzero;"/>
                <path d="M198.47,198.65L157.3,198.65C157.3,198.65 147.04,202.25 148.6,220.25L194.6,220.25C194.6,220.25 190.92,205.49 198.47,198.65Z" style="fill:white;fill-rule:nonzero;"/>
                <path d="M194.55,220.75L148.55,220.75C148.292,220.746 148.075,220.547 148.05,220.29C146.48,202.12 156.65,198.29 157.05,198.18C157.103,198.17 157.157,198.17 157.21,198.18L198.38,198.18C198.652,198.183 198.874,198.408 198.874,198.68C198.874,198.821 198.814,198.955 198.71,199.05C191.47,205.61 194.91,220.05 194.95,220.16C194.986,220.309 194.953,220.468 194.86,220.59C194.779,220.678 194.669,220.735 194.55,220.75ZM149.06,219.75L193.93,219.75C193.34,216.94 191.43,205.59 197.26,199.15L157.4,199.15C156.51,199.52 147.83,203.57 149.06,219.75Z" style="fill:rgb(35,31,32);fill-rule:nonzero;"/>
                <path d="M183.83,215.32L154.62,215.32C154.346,215.32 154.12,215.094 154.12,214.82C154.125,214.548 154.348,214.325 154.62,214.32L183.83,214.32C184.104,214.32 184.33,214.546 184.33,214.82C184.33,215.094 184.104,215.32 183.83,215.32Z" style="fill:rgb(230,231,232);fill-rule:nonzero;"/>
                <path d="M187.81,210L154.62,210C154.348,209.995 154.125,209.772 154.12,209.5C154.12,209.226 154.346,209 154.62,209L187.81,209C188.084,209 188.31,209.226 188.31,209.5C188.305,209.772 188.082,209.995 187.81,210Z" style="fill:rgb(230,231,232);fill-rule:nonzero;"/>
                <path d="M190.05,204.23L156.86,204.23C156.586,204.23 156.36,204.004 156.36,203.73C156.36,203.456 156.586,203.23 156.86,203.23L190.05,203.23C190.324,203.23 190.55,203.456 190.55,203.73C190.55,204.004 190.324,204.23 190.05,204.23Z" style="fill:rgb(230,231,232);fill-rule:nonzero;"/>
                <path d="M239.11,163.57L217.48,163.57C217.206,163.57 216.98,163.344 216.98,163.07C216.98,162.796 217.206,162.57 217.48,162.57L239.11,162.57C239.384,162.57 239.61,162.796 239.61,163.07C239.605,163.342 239.382,163.565 239.11,163.57Z" style="fill:rgb(230,231,232);fill-rule:nonzero;"/>
                <path d="M190.86,150.67L169.23,150.67C168.956,150.67 168.73,150.444 168.73,150.17C168.73,149.896 168.956,149.67 169.23,149.67L190.86,149.67C191.134,149.67 191.36,149.896 191.36,150.17C191.36,150.444 191.134,150.67 190.86,150.67Z" style="fill:rgb(230,231,232);fill-rule:nonzero;"/>
                <path d="M67.7,93.24C86.661,96.309 104.712,103.528 120.56,114.38L114.56,121.63L141.35,124.63L136.51,99.63L128.46,105.42C128.46,105.42 105.46,79.09 78.58,72.14L67.7,93.24Z" style="fill:white;fill-rule:nonzero;"/>
                <path d="M141.31,125.15L141.25,125.15L114.46,122.15C114.279,122.131 114.124,122.011 114.06,121.84C113.99,121.669 114.021,121.472 114.14,121.33L119.83,114.5C94.93,97.24 67.91,93.77 67.64,93.73C67.389,93.701 67.197,93.486 67.197,93.233C67.197,93.156 67.215,93.079 67.25,93.01L78.09,72C78.198,71.795 78.436,71.691 78.66,71.75C103.66,78.23 125.66,101.75 128.49,104.84L136.18,99.31C136.329,99.226 136.511,99.226 136.66,99.31C136.813,99.373 136.926,99.508 136.96,99.67L141.8,124.67C141.804,124.697 141.806,124.723 141.806,124.75C141.806,125.025 141.585,125.253 141.31,125.26L141.31,125.15ZM115.5,121.24L140.69,124.08L136.13,100.54L128.71,105.88C128.499,106.025 128.21,105.991 128.04,105.8C127.81,105.54 105.04,79.8 78.8,72.8L68.47,92.84C72.94,93.52 97.87,97.9 120.85,113.97C120.961,114.052 121.036,114.174 121.06,114.31C121.08,114.45 121.04,114.591 120.95,114.7L115.5,121.24Z" style="fill:rgb(35,31,32);fill-rule:nonzero;"/>
                <path d="M256,121.66C256,121.66 269.17,104.81 303.6,92.72L299.7,85L328.77,87.69L316.28,111.45L310.74,102.45C310.74,102.45 293.62,107.45 270.06,137.54L256,121.66Z" style="fill:white;fill-rule:nonzero;"/>
                <path d="M270.06,138.08C269.918,138.081 269.782,138.019 269.69,137.91L255.62,122C255.466,121.815 255.466,121.545 255.62,121.36C255.75,121.19 269.13,104.42 302.91,92.44L299.28,85.23C299.242,85.158 299.223,85.079 299.223,84.998C299.223,84.723 299.449,84.498 299.723,84.498C299.739,84.498 299.754,84.499 299.77,84.5L328.83,87.19C328.997,87.208 329.145,87.305 329.23,87.45C329.31,87.596 329.31,87.774 329.23,87.92L316.74,111.68C316.662,111.841 316.499,111.946 316.32,111.95C316.136,111.965 315.96,111.871 315.87,111.71L310.54,103.09C307.97,104.02 291.79,110.7 270.48,137.89C270.382,137.999 270.246,138.067 270.1,138.08L270.06,138.08ZM256.65,121.65L270,136.8C282,121.52 292.36,112.9 298.91,108.35C306.12,103.35 310.38,102.06 310.56,102.01C310.774,101.943 311.009,102.035 311.12,102.23L316.2,110.44L328,88.12L300.58,85.58L304,92.5C304.055,92.631 304.055,92.779 304,92.91C303.943,93.04 303.834,93.142 303.7,93.19C272.47,104.17 258.67,119.28 256.65,121.65Z" style="fill:rgb(35,31,32);fill-rule:nonzero;"/>
            </g>
        </g>
    </g>
</svg>
